HIERARCHY
ROOT Hips
{
	OFFSET 0.000000 0.000000 0.000000
	CHANNELS 6 Xposition Yposition Zposition Zrotation Yrotation Xrotation 
	JOINT LHipJoint
	{
		OFFSET 0.000000 0.000000 0.000000
		CHANNELS 3 Zrotation Yrotation Xrotation
		JOINT LeftUpLeg
		{
			OFFSET 1.363060 -1.794630 0.839290
			CHANNELS 3 Zrotation Yrotation Xrotation
			JOINT LeftLeg
			{
				OFFSET 2.448110 -6.726130 0.000000
				CHANNELS 3 Zrotation Yrotation Xrotation
				JOINT LeftFoot
				{
					OFFSET 2.562200 -7.039590 0.000000
					CHANNELS 3 Zrotation Yrotation Xrotation
					JOINT LeftToeBase
					{
						OFFSET 0.157640 -0.433110 2.322550
						CHANNELS 3 Zrotation Yrotation Xrotation
						End Site
						{
							OFFSET 0.000000 0.000000 0.000000
						}
					}
				}
			}
		}
	}
	JOINT RHipJoint
	{
		OFFSET 0.000000 0.000000 0.000000
		CHANNELS 3 Zrotation Yrotation Xrotation
		JOINT RightUpLeg
		{
			OFFSET -1.305520 -1.794630 0.839290
			CHANNELS 3 Zrotation Yrotation Xrotation
			JOINT RightLeg
			{
				OFFSET -2.542530 -6.985550 0.000000
				CHANNELS 3 Zrotation Yrotation Xrotation
				JOINT RightFoot
				{
					OFFSET -2.568260 -7.056230 0.000000
					CHANNELS 3 Zrotation Yrotation Xrotation
					JOINT RightToeBase
					{
						OFFSET -0.164730 -0.452590 2.363150
						CHANNELS 3 Zrotation Yrotation Xrotation
						End Site
						{
							OFFSET 0.000000 0.000000 0.000000
						}
					}
				}
			}
		}
	}
}
MOTION
Frames: 14
Frame Time: 0.008333
4.721296 17.099757 1.784884 24.966630 86.591865 52.335071 -9.960782 -0.879641 -0.582455 -11.459614 -3.124545 -49.775172 -0.113991 2.921382 57.633492 3.508594 17.513980 -14.174337 -1.530300 0.000000 -19.328300 8.952304 -1.321254 0.271317 9.149370 6.249574 -19.750921 1.709717 -0.816761 24.338670 -1.723937 -6.100455 -10.435436 0.030300 0.000001 -52.444300
4.974538 17.237581 1.783541 22.281152 86.184099 49.875710 -9.755842 -0.837299 -0.371390 -11.572071 -3.106905 -49.581731 -0.432250 2.604518 52.915825 3.519289 17.191012 -13.608370 -1.279000 -0.000000 -20.007500 9.102861 -1.475050 0.210748 8.730168 5.604787 -18.589406 1.653573 -0.780462 22.121938 -1.327917 -5.277554 -5.947529 -0.523300 -0.000000 -56.600001
5.228303 17.370986 1.780049 19.157160 85.727857 46.951914 -9.570829 -0.784554 -0.163836 -11.645117 -3.008484 -49.204203 -0.754910 2.259707 47.972907 3.503869 16.755449 -13.023231 -1.019600 -0.000000 -20.810600 9.253914 -1.623574 0.132810 8.340600 4.966701 -17.566854 1.588518 -0.783175 20.210054 -0.990809 -4.487136 -1.447474 -0.916001 0.000000 -60.144001
5.482463 17.498295 1.774823 16.000614 85.237862 43.964556 -9.403018 -0.729616 0.044388 -11.673637 -2.862687 -48.641399 -1.077247 1.877981 42.830772 3.451245 16.184825 -12.378520 -0.746600 -0.000000 -21.773300 9.407539 -1.760244 0.034296 7.980500 4.324661 -16.667513 1.516997 -0.816798 18.613089 -0.726368 -3.752035 2.930771 -1.146900 -0.000000 -62.938400
5.736983 17.617710 1.768210 13.039723 84.727978 41.139631 -9.254161 -0.681581 0.256685 -11.647602 -2.700465 -47.905339 -1.391893 1.454942 37.534738 3.352545 15.475562 -11.629385 -0.456900 0.000000 -22.908500 9.561237 -1.879638 -0.086289 7.649614 3.673582 -15.873455 1.440724 -0.871541 17.334887 -0.540880 -3.103297 7.054676 -1.238001 -0.000000 -64.930300
5.991857 17.727514 1.760478 10.358386 84.214149 38.558996 -9.128416 -0.649343 0.476621 -11.551236 -2.547406 -47.025587 -1.688681 0.992861 32.160923 3.203090 14.642218 -10.740635 -0.153100 -0.000001 -24.195900 9.710245 -1.980047 -0.225800 7.351052 3.015135 -15.167749 1.361300 -0.937919 16.375944 -0.433026 -2.582310 10.799976 -1.233200 -0.000000 -66.142699
6.247111 17.826097 1.751761 7.937959 83.708618 36.206748 -9.031198 -0.640007 0.703880 -11.368811 -2.417549 -46.054623 -1.957045 0.504291 26.822740 3.003769 13.709742 -9.702437 0.154499 -0.000000 -25.579400 9.847093 -2.061495 -0.379650 7.091030 2.358995 -14.537132 1.280244 -1.008136 15.736006 -0.394855 -2.237608 14.059625 -1.192700 -0.000000 -66.659400
6.502772 17.912237 1.742103 5.726132 83.222214 34.034255 -8.965806 -0.656978 0.934138 -11.094870 -2.309500 -45.064988 -2.189034 0.011203 21.668592 2.761200 12.701718 -8.541175 0.447500 -0.000001 -26.979900 9.965006 -2.126385 -0.541406 6.876300 1.717198 -13.973008 1.198865 -1.077322 15.415584 -0.413978 -2.114158 16.750959 -1.180600 0.000000 -66.605300
6.758694 17.985056 1.731637 3.686879 82.765542 32.008171 -8.931251 -0.698344 1.158315 -10.748381 -2.202380 -44.142802 -2.383892 -0.458670 16.870511 2.484923 11.622363 -7.322061 0.701600 -0.000000 -28.325500 10.060177 -2.178453 -0.704200 6.709170 1.097846 -13.472727 1.117799 -1.143866 15.418556 -0.476525 -2.240378 18.819503 -1.249200 -0.000000 -66.131000
7.014657 18.044234 1.720556 1.834771 82.350478 30.144139 -8.921195 -0.757175 1.365381 -10.377297 -2.065191 -43.369305 -2.549594 -0.880386 12.588675 2.186035 10.459640 -6.136749 0.891500 0.000000 -29.571401 10.133534 -2.221215 -0.862676 6.580784 0.499482 -13.037826 1.036784 -1.208885 15.749839 -0.569337 -2.613802 20.243494 -1.423400 0.000000 -65.385400
7.270211 18.089878 1.709109 0.205741 81.989383 28.478076 -8.926172 -0.824297 1.544988 -10.046260 -1.864668 -42.811857 -2.700402 -1.237435 8.949339 1.875067 9.191255 -5.087865 0.996200 -0.000000 -30.710301 10.188875 -2.256802 -1.014170 6.475657 -0.085374 -12.671918 0.955015 -1.274903 16.412092 -0.681636 -3.201780 21.035696 -1.697000 -0.000000 -64.513800
7.524864 18.122402 1.697604 -1.091186 81.696230 27.121006 -8.933489 -0.890825 1.697443 -9.809064 -1.616516 -42.491757 -2.846449 -1.528558 5.994968 1.568374 7.845862 -4.253965 1.012900 0.000000 -31.771400 10.235478 -2.284039 -1.162195 6.361345 -0.682867 -12.388433 0.871819 -1.346427 17.416284 -0.803723 -3.929217 21.231104 -2.027700 -0.000000 -63.609900
7.778129 18.142324 1.686063 -2.021307 81.480958 26.111716 -8.934130 -0.951195 1.829138 -9.681087 -1.361386 -42.398827 -2.989565 -1.760191 3.710681 1.284478 6.491538 -3.690100 0.956000 0.000000 -32.770900 10.279913 -2.300967 -1.312363 6.214610 -1.309106 -12.193957 0.787332 -1.427172 18.758578 -0.928566 -4.718175 20.899970 -2.364000 0.000000 -62.758100
8.029473 18.150064 1.674258 -2.588266 81.347889 25.451026 -8.922862 -1.002596 1.951078 -9.640009 -1.161820 -42.493919 -3.122683 -1.942351 2.034778 1.043112 5.235485 -3.417314 0.854300 0.000001 -33.707300 10.327275 -2.305503 -1.471613 6.019668 -1.974589 -12.091861 0.702570 -1.520584 20.427088 -1.050314 -5.493217 20.134419 -2.656000 0.000000 -62.011700
